<mxfile host="app.diagrams.net" agent="Mozilla/5.0 (Windows NT 10.0; Win64; x64) AppleWebKit/537.36 (KHTML, like Gecko) Chrome/136.0.0.0 Safari/537.36" version="27.0.9">
  <diagram name="Page-1" id="e-z9nLv3pO0rpAB532YU">
    <mxGraphModel dx="1439" dy="806" grid="1" gridSize="10" guides="1" tooltips="1" connect="1" arrows="1" fold="1" page="1" pageScale="1" pageWidth="827" pageHeight="583" math="0" shadow="0">
      <root>
        <mxCell id="0" />
        <mxCell id="1" parent="0" />
        <mxCell id="AnqzvPy46hdwWQv9rYoD-1" value="" style="endArrow=none;html=1;rounded=0;" parent="1" edge="1">
          <mxGeometry width="50" height="50" relative="1" as="geometry">
            <mxPoint x="63" y="134" as="sourcePoint" />
            <mxPoint x="143" y="134" as="targetPoint" />
          </mxGeometry>
        </mxCell>
        <mxCell id="AnqzvPy46hdwWQv9rYoD-2" value="Deep Sleep" style="text;html=1;align=center;verticalAlign=middle;resizable=0;points=[];autosize=1;strokeColor=none;fillColor=none;" parent="1" vertex="1">
          <mxGeometry x="53" y="104" width="90" height="30" as="geometry" />
        </mxCell>
        <mxCell id="AnqzvPy46hdwWQv9rYoD-5" value="8 AM" style="text;html=1;align=center;verticalAlign=middle;whiteSpace=wrap;rounded=0;" parent="1" vertex="1">
          <mxGeometry x="113" y="174" width="60" height="30" as="geometry" />
        </mxCell>
        <mxCell id="AnqzvPy46hdwWQv9rYoD-6" value="Sensors sampling every 2 minutes" style="rounded=1;whiteSpace=wrap;html=1;" parent="1" vertex="1">
          <mxGeometry x="173" y="113" width="100" height="40" as="geometry" />
        </mxCell>
        <mxCell id="AnqzvPy46hdwWQv9rYoD-7" value="" style="endArrow=none;dashed=1;html=1;dashPattern=1 3;strokeWidth=2;rounded=0;exitX=0.987;exitY=0.974;exitDx=0;exitDy=0;exitPerimeter=0;entryX=0;entryY=0.5;entryDx=0;entryDy=0;" parent="1" edge="1">
          <mxGeometry width="50" height="50" relative="1" as="geometry">
            <mxPoint x="143.83000000000004" y="134.22000000000003" as="sourcePoint" />
            <mxPoint x="175" y="134" as="targetPoint" />
          </mxGeometry>
        </mxCell>
        <mxCell id="AnqzvPy46hdwWQv9rYoD-8" value="Detect &lt;br&gt;Vehicle" style="rhombus;whiteSpace=wrap;html=1;" parent="1" vertex="1">
          <mxGeometry x="303" y="104" width="70" height="60" as="geometry" />
        </mxCell>
        <mxCell id="AnqzvPy46hdwWQv9rYoD-9" value="" style="endArrow=none;dashed=1;html=1;dashPattern=1 3;strokeWidth=2;rounded=0;exitX=0.987;exitY=0.974;exitDx=0;exitDy=0;exitPerimeter=0;entryX=0;entryY=0.5;entryDx=0;entryDy=0;" parent="1" edge="1">
          <mxGeometry width="50" height="50" relative="1" as="geometry">
            <mxPoint x="273" y="134.22000000000003" as="sourcePoint" />
            <mxPoint x="304.16999999999996" y="134" as="targetPoint" />
          </mxGeometry>
        </mxCell>
        <mxCell id="AnqzvPy46hdwWQv9rYoD-10" value="Sensors sampling every 7 minutes" style="rounded=1;whiteSpace=wrap;html=1;" parent="1" vertex="1">
          <mxGeometry x="397" y="114" width="100" height="40" as="geometry" />
        </mxCell>
        <mxCell id="AnqzvPy46hdwWQv9rYoD-11" value="" style="endArrow=none;dashed=1;html=1;dashPattern=1 3;strokeWidth=2;rounded=0;entryX=0;entryY=0.5;entryDx=0;entryDy=0;" parent="1" edge="1">
          <mxGeometry width="50" height="50" relative="1" as="geometry">
            <mxPoint x="376" y="134" as="sourcePoint" />
            <mxPoint x="399.99999999999994" y="134" as="targetPoint" />
          </mxGeometry>
        </mxCell>
        <mxCell id="AnqzvPy46hdwWQv9rYoD-14" value="Deep Sleep" style="rounded=1;whiteSpace=wrap;html=1;" parent="1" vertex="1">
          <mxGeometry x="188" y="164" width="70" height="20" as="geometry" />
        </mxCell>
        <mxCell id="AnqzvPy46hdwWQv9rYoD-18" value="" style="endArrow=none;html=1;rounded=0;exitX=0;exitY=0.5;exitDx=0;exitDy=0;entryX=0;entryY=0.5;entryDx=0;entryDy=0;" parent="1" source="AnqzvPy46hdwWQv9rYoD-6" target="AnqzvPy46hdwWQv9rYoD-14" edge="1">
          <mxGeometry width="50" height="50" relative="1" as="geometry">
            <mxPoint x="373" y="154" as="sourcePoint" />
            <mxPoint x="423" y="104" as="targetPoint" />
            <Array as="points">
              <mxPoint x="173" y="174" />
            </Array>
          </mxGeometry>
        </mxCell>
        <mxCell id="AnqzvPy46hdwWQv9rYoD-19" value="" style="endArrow=none;html=1;rounded=0;exitX=1;exitY=0.5;exitDx=0;exitDy=0;entryX=1;entryY=0.5;entryDx=0;entryDy=0;" parent="1" source="AnqzvPy46hdwWQv9rYoD-14" target="AnqzvPy46hdwWQv9rYoD-6" edge="1">
          <mxGeometry width="50" height="50" relative="1" as="geometry">
            <mxPoint x="288" y="185" as="sourcePoint" />
            <mxPoint x="303" y="226" as="targetPoint" />
            <Array as="points">
              <mxPoint x="273" y="174" />
            </Array>
          </mxGeometry>
        </mxCell>
        <mxCell id="AnqzvPy46hdwWQv9rYoD-20" value="Deep Sleep" style="rounded=1;whiteSpace=wrap;html=1;" parent="1" vertex="1">
          <mxGeometry x="412" y="164" width="70" height="20" as="geometry" />
        </mxCell>
        <mxCell id="AnqzvPy46hdwWQv9rYoD-21" value="" style="endArrow=none;html=1;rounded=0;exitX=0;exitY=0.5;exitDx=0;exitDy=0;entryX=0;entryY=0.5;entryDx=0;entryDy=0;" parent="1" target="AnqzvPy46hdwWQv9rYoD-20" edge="1">
          <mxGeometry width="50" height="50" relative="1" as="geometry">
            <mxPoint x="397" y="133" as="sourcePoint" />
            <mxPoint x="647" y="104" as="targetPoint" />
            <Array as="points">
              <mxPoint x="397" y="174" />
            </Array>
          </mxGeometry>
        </mxCell>
        <mxCell id="AnqzvPy46hdwWQv9rYoD-22" value="" style="endArrow=none;html=1;rounded=0;exitX=1;exitY=0.5;exitDx=0;exitDy=0;entryX=1;entryY=0.5;entryDx=0;entryDy=0;" parent="1" source="AnqzvPy46hdwWQv9rYoD-20" edge="1">
          <mxGeometry width="50" height="50" relative="1" as="geometry">
            <mxPoint x="512" y="185" as="sourcePoint" />
            <mxPoint x="497" y="133" as="targetPoint" />
            <Array as="points">
              <mxPoint x="497" y="174" />
            </Array>
          </mxGeometry>
        </mxCell>
        <mxCell id="AnqzvPy46hdwWQv9rYoD-27" style="edgeStyle=orthogonalEdgeStyle;rounded=0;orthogonalLoop=1;jettySize=auto;html=1;exitX=1;exitY=0.5;exitDx=0;exitDy=0;entryX=0.5;entryY=0;entryDx=0;entryDy=0;" parent="1" edge="1">
          <mxGeometry relative="1" as="geometry">
            <mxPoint x="303" y="228.9999999999999" as="sourcePoint" />
            <mxPoint x="368" y="258" as="targetPoint" />
            <Array as="points">
              <mxPoint x="303" y="230" />
              <mxPoint x="368" y="230" />
            </Array>
          </mxGeometry>
        </mxCell>
        <mxCell id="AnqzvPy46hdwWQv9rYoD-23" value="Update Parking Status" style="rounded=1;whiteSpace=wrap;html=1;" parent="1" vertex="1">
          <mxGeometry x="203" y="214" width="100" height="28" as="geometry" />
        </mxCell>
        <mxCell id="AnqzvPy46hdwWQv9rYoD-25" value="" style="endArrow=classic;html=1;rounded=0;exitX=0.5;exitY=1;exitDx=0;exitDy=0;entryX=0.5;entryY=0;entryDx=0;entryDy=0;" parent="1" source="AnqzvPy46hdwWQv9rYoD-8" target="AnqzvPy46hdwWQv9rYoD-23" edge="1">
          <mxGeometry width="50" height="50" relative="1" as="geometry">
            <mxPoint x="373" y="154" as="sourcePoint" />
            <mxPoint x="423" y="104" as="targetPoint" />
            <Array as="points">
              <mxPoint x="338" y="204" />
              <mxPoint x="253" y="204" />
            </Array>
          </mxGeometry>
        </mxCell>
        <mxCell id="AnqzvPy46hdwWQv9rYoD-31" style="edgeStyle=orthogonalEdgeStyle;rounded=0;orthogonalLoop=1;jettySize=auto;html=1;exitX=0.5;exitY=1;exitDx=0;exitDy=0;entryX=1;entryY=0.5;entryDx=0;entryDy=0;" parent="1" target="AnqzvPy46hdwWQv9rYoD-30" edge="1">
          <mxGeometry relative="1" as="geometry">
            <mxPoint x="368" y="286" as="sourcePoint" />
            <mxPoint x="308" y="312" as="targetPoint" />
            <Array as="points">
              <mxPoint x="368" y="314.5" />
              <mxPoint x="308" y="314.5" />
            </Array>
          </mxGeometry>
        </mxCell>
        <mxCell id="AnqzvPy46hdwWQv9rYoD-33" style="edgeStyle=orthogonalEdgeStyle;rounded=0;orthogonalLoop=1;jettySize=auto;html=1;exitX=0.5;exitY=1;exitDx=0;exitDy=0;entryX=0;entryY=0.5;entryDx=0;entryDy=0;" parent="1" target="AnqzvPy46hdwWQv9rYoD-56" edge="1">
          <mxGeometry relative="1" as="geometry">
            <mxPoint x="368" y="291" as="sourcePoint" />
            <mxPoint x="440.5" y="315" as="targetPoint" />
            <Array as="points">
              <mxPoint x="368" y="314.5" />
              <mxPoint x="441" y="314.5" />
            </Array>
          </mxGeometry>
        </mxCell>
        <mxCell id="AnqzvPy46hdwWQv9rYoD-26" value="Send Status MQTT/Lora" style="rounded=1;whiteSpace=wrap;html=1;" parent="1" vertex="1">
          <mxGeometry x="318" y="260" width="100" height="30" as="geometry" />
        </mxCell>
        <mxCell id="AnqzvPy46hdwWQv9rYoD-30" value="Update Application UI" style="rounded=1;whiteSpace=wrap;html=1;" parent="1" vertex="1">
          <mxGeometry x="203" y="300" width="105" height="30" as="geometry" />
        </mxCell>
        <mxCell id="AnqzvPy46hdwWQv9rYoD-32" value="Append data to dataset for ML" style="rounded=1;whiteSpace=wrap;html=1;" parent="1" vertex="1">
          <mxGeometry x="543" y="297.5" width="100" height="35" as="geometry" />
        </mxCell>
        <mxCell id="AnqzvPy46hdwWQv9rYoD-34" value="" style="endArrow=none;html=1;rounded=0;" parent="1" edge="1">
          <mxGeometry width="50" height="50" relative="1" as="geometry">
            <mxPoint x="633" y="134" as="sourcePoint" />
            <mxPoint x="713" y="134" as="targetPoint" />
          </mxGeometry>
        </mxCell>
        <mxCell id="AnqzvPy46hdwWQv9rYoD-35" value="Deep Sleep" style="text;html=1;align=center;verticalAlign=middle;resizable=0;points=[];autosize=1;strokeColor=none;fillColor=none;" parent="1" vertex="1">
          <mxGeometry x="623" y="104" width="90" height="30" as="geometry" />
        </mxCell>
        <mxCell id="AnqzvPy46hdwWQv9rYoD-38" value="" style="endArrow=none;html=1;rounded=0;" parent="1" edge="1">
          <mxGeometry width="50" height="50" relative="1" as="geometry">
            <mxPoint x="633" y="174" as="sourcePoint" />
            <mxPoint x="633" y="94" as="targetPoint" />
          </mxGeometry>
        </mxCell>
        <mxCell id="AnqzvPy46hdwWQv9rYoD-40" value="" style="endArrow=none;dashed=1;html=1;dashPattern=1 3;strokeWidth=2;rounded=0;exitX=0.987;exitY=0.974;exitDx=0;exitDy=0;exitPerimeter=0;entryX=0;entryY=0.5;entryDx=0;entryDy=0;" parent="1" edge="1">
          <mxGeometry width="50" height="50" relative="1" as="geometry">
            <mxPoint x="603" y="134.04000000000002" as="sourcePoint" />
            <mxPoint x="634.17" y="133.82" as="targetPoint" />
          </mxGeometry>
        </mxCell>
        <mxCell id="AnqzvPy46hdwWQv9rYoD-41" value="12 PM" style="text;html=1;align=center;verticalAlign=middle;whiteSpace=wrap;rounded=0;" parent="1" vertex="1">
          <mxGeometry x="613" y="174" width="60" height="30" as="geometry" />
        </mxCell>
        <mxCell id="AnqzvPy46hdwWQv9rYoD-42" value="No Vehicle" style="rhombus;whiteSpace=wrap;html=1;" parent="1" vertex="1">
          <mxGeometry x="528" y="104" width="70" height="60" as="geometry" />
        </mxCell>
        <mxCell id="AnqzvPy46hdwWQv9rYoD-43" value="" style="endArrow=none;dashed=1;html=1;dashPattern=1 3;strokeWidth=2;rounded=0;exitX=0.987;exitY=0.974;exitDx=0;exitDy=0;exitPerimeter=0;entryX=0;entryY=0.5;entryDx=0;entryDy=0;" parent="1" edge="1">
          <mxGeometry width="50" height="50" relative="1" as="geometry">
            <mxPoint x="498" y="134.22000000000003" as="sourcePoint" />
            <mxPoint x="529.17" y="134" as="targetPoint" />
          </mxGeometry>
        </mxCell>
        <mxCell id="AnqzvPy46hdwWQv9rYoD-44" value="Update Parking Status" style="rounded=1;whiteSpace=wrap;html=1;" parent="1" vertex="1">
          <mxGeometry x="428" y="214" width="100" height="28" as="geometry" />
        </mxCell>
        <mxCell id="AnqzvPy46hdwWQv9rYoD-45" value="" style="endArrow=classic;html=1;rounded=0;exitX=0.5;exitY=1;exitDx=0;exitDy=0;entryX=1;entryY=0.5;entryDx=0;entryDy=0;" parent="1" source="AnqzvPy46hdwWQv9rYoD-42" target="AnqzvPy46hdwWQv9rYoD-44" edge="1">
          <mxGeometry width="50" height="50" relative="1" as="geometry">
            <mxPoint x="598" y="154" as="sourcePoint" />
            <mxPoint x="648" y="104" as="targetPoint" />
            <Array as="points">
              <mxPoint x="563" y="228" />
            </Array>
          </mxGeometry>
        </mxCell>
        <mxCell id="AnqzvPy46hdwWQv9rYoD-46" style="edgeStyle=orthogonalEdgeStyle;rounded=0;orthogonalLoop=1;jettySize=auto;html=1;exitX=0.5;exitY=1;exitDx=0;exitDy=0;entryX=1;entryY=0.5;entryDx=0;entryDy=0;" parent="1" source="AnqzvPy46hdwWQv9rYoD-44" target="AnqzvPy46hdwWQv9rYoD-26" edge="1">
          <mxGeometry relative="1" as="geometry">
            <mxPoint x="512" y="271" as="sourcePoint" />
            <mxPoint x="577" y="300.0000000000001" as="targetPoint" />
            <Array as="points">
              <mxPoint x="478" y="275" />
            </Array>
          </mxGeometry>
        </mxCell>
        <mxCell id="AnqzvPy46hdwWQv9rYoD-47" value="" style="endArrow=none;html=1;rounded=0;" parent="1" edge="1">
          <mxGeometry width="50" height="50" relative="1" as="geometry">
            <mxPoint x="142.69" y="173" as="sourcePoint" />
            <mxPoint x="142.69" y="93" as="targetPoint" />
          </mxGeometry>
        </mxCell>
        <mxCell id="AnqzvPy46hdwWQv9rYoD-53" style="edgeStyle=orthogonalEdgeStyle;rounded=0;orthogonalLoop=1;jettySize=auto;html=1;entryX=0.5;entryY=1;entryDx=0;entryDy=0;" parent="1" source="AnqzvPy46hdwWQv9rYoD-48" target="AnqzvPy46hdwWQv9rYoD-30" edge="1">
          <mxGeometry relative="1" as="geometry">
            <Array as="points">
              <mxPoint x="679" y="360" />
              <mxPoint x="255" y="360" />
            </Array>
          </mxGeometry>
        </mxCell>
        <mxCell id="AnqzvPy46hdwWQv9rYoD-48" value="" style="sketch=0;outlineConnect=0;fontColor=#232F3E;gradientColor=none;fillColor=#01A88D;strokeColor=none;dashed=0;verticalLabelPosition=bottom;verticalAlign=top;align=center;html=1;fontSize=12;fontStyle=0;aspect=fixed;pointerEvents=1;shape=mxgraph.aws4.sagemaker_model;" parent="1" vertex="1">
          <mxGeometry x="654" y="290" width="50" height="50" as="geometry" />
        </mxCell>
        <mxCell id="AnqzvPy46hdwWQv9rYoD-49" value="" style="endArrow=none;html=1;rounded=0;exitX=1;exitY=0.5;exitDx=0;exitDy=0;" parent="1" source="AnqzvPy46hdwWQv9rYoD-32" target="AnqzvPy46hdwWQv9rYoD-48" edge="1">
          <mxGeometry width="50" height="50" relative="1" as="geometry">
            <mxPoint x="524" y="240" as="sourcePoint" />
            <mxPoint x="574" y="190" as="targetPoint" />
          </mxGeometry>
        </mxCell>
        <mxCell id="AnqzvPy46hdwWQv9rYoD-50" value="AI Model" style="text;html=1;align=center;verticalAlign=middle;resizable=0;points=[];autosize=1;strokeColor=none;fillColor=none;" parent="1" vertex="1">
          <mxGeometry x="704" y="300" width="70" height="30" as="geometry" />
        </mxCell>
        <mxCell id="AnqzvPy46hdwWQv9rYoD-54" value="Estimate how long the vehicle&lt;br&gt;&amp;nbsp;will stay if spot is occupied at certain time" style="text;html=1;align=center;verticalAlign=middle;resizable=0;points=[];autosize=1;strokeColor=none;fillColor=none;flipH=0;flipV=1;" parent="1" vertex="1">
          <mxGeometry x="343" y="364" width="250" height="40" as="geometry" />
        </mxCell>
        <mxCell id="AnqzvPy46hdwWQv9rYoD-56" value="AWS Cloud" style="rounded=1;whiteSpace=wrap;html=1;" parent="1" vertex="1">
          <mxGeometry x="440.5" y="304.5" width="75" height="19" as="geometry" />
        </mxCell>
        <mxCell id="AnqzvPy46hdwWQv9rYoD-58" value="" style="endArrow=none;html=1;rounded=0;exitX=1.001;exitY=0.516;exitDx=0;exitDy=0;entryX=0.004;entryY=0.482;entryDx=0;entryDy=0;entryPerimeter=0;exitPerimeter=0;" parent="1" source="AnqzvPy46hdwWQv9rYoD-56" target="AnqzvPy46hdwWQv9rYoD-32" edge="1">
          <mxGeometry width="50" height="50" relative="1" as="geometry">
            <mxPoint x="453" y="334" as="sourcePoint" />
            <mxPoint x="503" y="284" as="targetPoint" />
            <Array as="points" />
          </mxGeometry>
        </mxCell>
        <mxCell id="AnqzvPy46hdwWQv9rYoD-68" value="Send Ground Truth Data" style="text;html=1;align=center;verticalAlign=middle;resizable=0;points=[];autosize=1;strokeColor=none;fillColor=none;" parent="1" vertex="1">
          <mxGeometry x="78" y="374" width="150" height="30" as="geometry" />
        </mxCell>
        <mxCell id="AnqzvPy46hdwWQv9rYoD-72" value="Crowd Sensing" style="text;html=1;align=center;verticalAlign=middle;resizable=0;points=[];autosize=1;strokeColor=none;fillColor=none;" parent="1" vertex="1">
          <mxGeometry x="28" y="450" width="100" height="30" as="geometry" />
        </mxCell>
        <mxCell id="AnqzvPy46hdwWQv9rYoD-73" value="" style="group" parent="1" connectable="0" vertex="1">
          <mxGeometry x="53.75" y="404" width="48.5" height="52" as="geometry" />
        </mxCell>
        <mxCell id="AnqzvPy46hdwWQv9rYoD-74" value="" style="verticalLabelPosition=bottom;sketch=0;html=1;fillColor=#282828;strokeColor=none;verticalAlign=top;pointerEvents=1;align=center;shape=mxgraph.cisco_safe.people_places_things_icons.icon1;" parent="AnqzvPy46hdwWQv9rYoD-73" vertex="1">
          <mxGeometry x="12" width="36.5" height="40" as="geometry" />
        </mxCell>
        <mxCell id="AnqzvPy46hdwWQv9rYoD-75" value="" style="html=1;verticalLabelPosition=bottom;align=center;labelBackgroundColor=#ffffff;verticalAlign=top;strokeWidth=2;strokeColor=#0080F0;shadow=0;dashed=0;shape=mxgraph.ios7.icons.smartphone;" parent="AnqzvPy46hdwWQv9rYoD-73" vertex="1">
          <mxGeometry y="22" width="18" height="30" as="geometry" />
        </mxCell>
        <mxCell id="AnqzvPy46hdwWQv9rYoD-78" style="edgeStyle=orthogonalEdgeStyle;rounded=0;orthogonalLoop=1;jettySize=auto;html=1;exitX=0.5;exitY=1;exitDx=0;exitDy=0;entryX=0.5;entryY=0;entryDx=0;entryDy=0;" parent="1" source="AnqzvPy46hdwWQv9rYoD-76" target="AnqzvPy46hdwWQv9rYoD-77" edge="1">
          <mxGeometry relative="1" as="geometry" />
        </mxCell>
        <mxCell id="AnqzvPy46hdwWQv9rYoD-76" value="AWS Cloud" style="rounded=1;whiteSpace=wrap;html=1;" parent="1" vertex="1">
          <mxGeometry x="175.5" y="420.5" width="75" height="19" as="geometry" />
        </mxCell>
        <mxCell id="AnqzvPy46hdwWQv9rYoD-77" value="Compute Sensor Accuracy" style="rounded=1;whiteSpace=wrap;html=1;" parent="1" vertex="1">
          <mxGeometry x="163" y="456" width="100" height="34" as="geometry" />
        </mxCell>
        <mxCell id="AnqzvPy46hdwWQv9rYoD-79" value="" style="endArrow=classic;html=1;rounded=0;entryX=0;entryY=0.5;entryDx=0;entryDy=0;" parent="1" target="AnqzvPy46hdwWQv9rYoD-76" edge="1">
          <mxGeometry width="50" height="50" relative="1" as="geometry">
            <mxPoint x="118" y="430" as="sourcePoint" />
            <mxPoint x="308" y="260" as="targetPoint" />
          </mxGeometry>
        </mxCell>
      </root>
    </mxGraphModel>
  </diagram>
</mxfile>
